<?xml version="1.0" encoding="utf-8"?>
<!-- Generator: Adobe Illustrator 16.0.0, SVG Export Plug-In . SVG Version: 6.00 Build 0)  -->
<!DOCTYPE svg PUBLIC "-//W3C//DTD SVG 1.1//EN" "http://www.w3.org/Graphics/SVG/1.1/DTD/svg11.dtd">
<svg version="1.1" id="Layer_1" xmlns="http://www.w3.org/2000/svg" xmlns:xlink="http://www.w3.org/1999/xlink" x="0px" y="0px"
	 width="80px" height="80px" viewBox="0 0 80 80" enable-background="new 0 0 80 80" xml:space="preserve">
<path fill="#FFFFFF" d="M31.034,45.803c0-5.031,3.987-9.16,8.876-9.204c0.093,0,7.098,0,10.191,0v-9.354
	c-6.402,0.001-10.239,0.001-10.247,0.001c-9.952,0.081-18.047,8.406-18.047,18.558c0,4.991,1.945,9.525,5.099,12.863l-3.789,7.627
	l9.995-3.317c2.126,0.891,4.453,1.385,6.888,1.385c2.214,0,4.336-0.406,6.3-1.148V52.343c-1.62,1.646-3.846,2.665-6.3,2.665
	C35.057,55.008,31.034,50.879,31.034,45.803z"/>
<path opacity="0.31" fill="#FFFFFF" d="M48.965,36.593c-0.832,0-1.732,0-2.665,0v-9.349c0.933,0,1.833,0,2.665,0V36.593z"/>
<path fill="#FFFFFF" d="M58.088,13.707c-5.039,0-9.123,4.084-9.123,9.121c0,0.001,0,0.001,0,0.002v4.414v9.354v5.763v3.441
	c0,0.169-0.016,0.333-0.024,0.501c0.009,0,0.017,0,0.024,0v15.638c5.506-3.194,9.229-9.229,9.229-16.139V31.95v-9.12v-9.119
	C58.157,13.709,58.123,13.707,58.088,13.707z"/>
</svg>
