<?xml version="1.0" encoding="utf-8"?>
<!-- Generator: Adobe Illustrator 16.0.0, SVG Export Plug-In . SVG Version: 6.00 Build 0)  -->
<!DOCTYPE svg PUBLIC "-//W3C//DTD SVG 1.1//EN" "http://www.w3.org/Graphics/SVG/1.1/DTD/svg11.dtd">
<svg version="1.1" id="Layer_1" xmlns="http://www.w3.org/2000/svg" xmlns:xlink="http://www.w3.org/1999/xlink" x="0px" y="0px"
	 width="40px" height="80px" viewBox="0 0 40 80" enable-background="new 0 0 40 80" xml:space="preserve">
<g>
	
		<linearGradient id="SVGID_1_" gradientUnits="userSpaceOnUse" x1="-226.9146" y1="95" x2="-226.9146" y2="123.1201" gradientTransform="matrix(1 0 0 -1 244 175)">
		<stop  offset="0" style="stop-color:#EABA10"/>
		<stop  offset="0.2734" style="stop-color:#EAB711"/>
		<stop  offset="0.5131" style="stop-color:#ECAC14"/>
		<stop  offset="0.7402" style="stop-color:#EF9A18"/>
		<stop  offset="0.9583" style="stop-color:#F2811F"/>
		<stop  offset="1" style="stop-color:#F37B20"/>
	</linearGradient>
	<path fill="url(#SVGID_1_)" d="M13.548,65.241c0-3.618,2.868-6.594,6.389-6.628c0.065,0,5.109,0,7.335,0V51.88
		c-4.608,0-7.372,0-7.378,0c-7.167,0.059-12.995,6.053-12.995,13.361c0,3.599,1.402,6.858,3.668,9.264L7.841,80l7.198-2.393
		c1.531,0.644,3.202,0.998,4.96,0.998c1.593,0,3.123-0.294,4.537-0.825v-7.826c-1.169,1.186-2.771,1.919-4.537,1.919
		C16.443,71.871,13.548,68.896,13.548,65.241z"/>
	<path opacity="0.31" fill="#231F20" enable-background="new    " d="M26.455,58.611c-0.598,0-1.245,0-1.915,0V51.88
		c0.67,0,1.317,0,1.915,0V58.611z"/>
	
		<linearGradient id="SVGID_2_" gradientUnits="userSpaceOnUse" x1="-214.2305" y1="98.1357" x2="-214.2305" y2="132.8682" gradientTransform="matrix(1 0 0 -1 244 175)">
		<stop  offset="0" style="stop-color:#EABA10"/>
		<stop  offset="0.2734" style="stop-color:#EAB711"/>
		<stop  offset="0.5131" style="stop-color:#ECAC14"/>
		<stop  offset="0.7402" style="stop-color:#EF9A18"/>
		<stop  offset="0.9583" style="stop-color:#F2811F"/>
		<stop  offset="1" style="stop-color:#F37B20"/>
	</linearGradient>
	<path fill="url(#SVGID_2_)" d="M33.027,42.132c-3.626,0-6.572,2.94-6.572,6.565l0,0v3.183v6.733v4.152v2.476
		c0,0.123-0.011,0.242-0.017,0.359c0.006,0,0.012,0,0.017,0v11.264c3.968-2.301,6.646-6.646,6.646-11.623v-9.976v-6.568v-6.565
		C33.08,42.132,33.051,42.132,33.027,42.132z"/>
</g>
<g>
	<path fill="#FFFFFF" d="M13.548,25.109c0-3.618,2.868-6.594,6.389-6.628c0.065,0,5.109,0,7.335,0v-6.733c-4.608,0-7.372,0-7.378,0
		c-7.167,0.059-12.995,6.053-12.995,13.361c0,3.599,1.402,6.858,3.668,9.264l-2.727,5.495l7.198-2.393
		c1.531,0.644,3.202,0.998,4.96,0.998c1.593,0,3.123-0.294,4.537-0.825v-7.826c-1.169,1.186-2.771,1.919-4.537,1.919
		C16.443,31.739,13.548,28.765,13.548,25.109z"/>
	<path opacity="0.31" fill="#FFFFFF" enable-background="new    " d="M26.455,18.479c-0.598,0-1.245,0-1.915,0v-6.731
		c0.67,0,1.317,0,1.915,0V18.479z"/>
	<path fill="#FFFFFF" d="M33.027,2c-3.626,0-6.572,2.94-6.572,6.565l0,0v3.183v6.733v4.152v2.476c0,0.123-0.011,0.242-0.017,0.359
		c0.006,0,0.012,0,0.017,0v11.264c3.968-2.301,6.646-6.646,6.646-11.623v-9.976V8.565V2C33.08,2,33.051,2,33.027,2z"/>
</g>
</svg>
